<?xml version="1.0"?>
<svg xmlns:rdf="http://www.w3.org/1999/02/22-rdf-syntax-ns#" xmlns="http://www.w3.org/2000/svg" xmlns:cc="http://creativecommons.org/ns#" xmlns:dc="http://purl.org/dc/elements/1.1/" xmlns:svg="http://www.w3.org/2000/svg" id="svg3792" viewBox="0 0 48 48" version="1.1">
  <g id="layer1">
    <path id="path2832" style='fill:green;stroke:black;' d="m21.185 9.4157c-8.2753 0-14.988 6.7131-14.988 14.988 0 8.2754 6.713 14.988 14.988 14.988 6.374 0 11.794-4.0065 13.959-9.617-3.5261 2.6867-4.3343 3.0888-4.5029 1.1257-2.0722 3.0029-5.5317 4.9854-9.4562 4.9854-6.3444 0-11.515-5.138-11.515-11.482 0-6.3442 5.1702-11.482 11.515-11.482 2.4461 0 4.6984 0.75528 6.5614 2.0585 0.11106-0.02811 0.17058-0.03426 0.28947-0.06433 2.0239-0.51158 2.4263-0.69568 2.5088-2.2193-2.5664-2.0599-5.8128-3.2807-9.3597-3.2807zm11.225 1.2222c-0.53956-0.0053-0.57895 0.71121-0.57895 2.1871 0 2.3279-0.0336 2.3747-2.0906 2.8947-4.8087 1.2156-8.7724 3.4279-12.158 6.7866-3.3615 3.3347-4.9751 6.022-4.3421 7.2047 0.12204 0.22808 0.3207 0.28947 0.83626 0.28947 0.56976 0 0.81575-0.08707 1.5117-0.64328 1.452-1.1604 1.8991-1.4723 3.2807-2.2193 3.3098-1.7895 7.1101-2.6476 10.678-2.3801 1.3059 0.09788 1.5834 0.16823 1.8977 0.48246 0.3457 0.34572 0.38596 0.4997 0.38596 2.3158 0 3.0696 0.20846 3.0831 3.9883 0.19298 1.521-1.1629 3.5659-2.731 4.5673-3.4737 3.5897-2.6629 3.9484-2.9063 4.2135-3.4737l0.03216-0.28947c-0.03922-0.59675-0.01662-1.0803-8.6842-7.6228-1.9817-1.4956-2.9985-2.2461-3.538-2.2515z"/>
  </g>
  <metadata>
    <rdf:RDF>
      <cc:Work>
        <dc:format>image/svg+xml</dc:format>
        <dc:type rdf:resource="http://purl.org/dc/dcmitype/StillImage"/>
        <cc:license rdf:resource="http://creativecommons.org/licenses/publicdomain/"/>
        <dc:publisher>
          <cc:Agent rdf:about="http://openclipart.org/">
            <dc:title>Openclipart</dc:title>
          </cc:Agent>
        </dc:publisher>
        <dc:title>export icon 2</dc:title>
        <dc:date>2013-07-15T19:10:44</dc:date>
        <dc:description>An export icon</dc:description>
        <dc:source>http://openclipart.org/detail/180891/export-icon-2-by-dibargatin-180891</dc:source>
        <dc:creator>
          <cc:Agent>
            <dc:title>dibargatin</dc:title>
          </cc:Agent>
        </dc:creator>
        <dc:subject>
          <rdf:Bag>
            <rdf:li>android</rdf:li>
            <rdf:li>export</rdf:li>
            <rdf:li>icon</rdf:li>
          </rdf:Bag>
        </dc:subject>
      </cc:Work>
      <cc:License rdf:about="http://creativecommons.org/licenses/publicdomain/">
        <cc:permits rdf:resource="http://creativecommons.org/ns#Reproduction"/>
        <cc:permits rdf:resource="http://creativecommons.org/ns#Distribution"/>
        <cc:permits rdf:resource="http://creativecommons.org/ns#DerivativeWorks"/>
      </cc:License>
    </rdf:RDF>
  </metadata>
</svg>
