<?xml version="1.0"?>
<svg xmlns:rdf="http://www.w3.org/1999/02/22-rdf-syntax-ns#" xmlns="http://www.w3.org/2000/svg" xmlns:cc="http://creativecommons.org/ns#" xmlns:xlink="http://www.w3.org/1999/xlink" xmlns:dc="http://purl.org/dc/elements/1.1/" id="svg1307" viewBox="0 0 48 48">
  <defs id="defs1309">
    <radialGradient id="radialGradient2228" gradientUnits="userSpaceOnUse" cy="36.421" cx="24.837" gradientTransform="matrix(1 0 0 .53672 -3.2417e-13 16.873)" r="15.645">
      <stop id="stop8664" offset="0"/>
      <stop id="stop8666" stop-opacity="0" offset="1"/>
    </radialGradient>
    <radialGradient id="radialGradient1368" gradientUnits="userSpaceOnUse" cy="-3.2183" cx="21.929" gradientTransform="matrix(3.6588 -3.1339e-16 1.7195e-16 2.0808 -62.416 12.762)" r="13">
      <stop id="stop3342" stop-color="#fff" offset="0"/>
      <stop id="stop3344" stop-color="#fff" stop-opacity="0" offset="1"/>
    </radialGradient>
    <radialGradient id="radialGradient2263" gradientUnits="userSpaceOnUse" cy="28.116" cx="22.5" gradientTransform="matrix(2.3656 -4.9422e-16 5.3598e-16 2.2028 -30.725 -34.24)" r="14.538">
      <!--<stop id="stop2259" stop-color="#ef2929" offset="0"/>
      <stop id="stop2261" stop-color="#c00" offset="1"/> -->
        <stop id="stop2259" stop-color="#ef2929" offset="0">
            <animate attributeName="stop-color" attributeType="CSS"
             begin="0s" dur="1s" values="#ef2929;#661111;#ef2929" repeatCount="indefinite" calcMode="spline"/>
        </stop>
        <stop id="stop2261" stop-color="#c00" offset="1">
            <animate attributeName="stop-color" attributeType="CSS"
             begin="0s" dur="1s" values="#c00;#611;#c00" repeatCount="indefinite" calcMode="spline"/>
        </stop>
    </radialGradient>
    <linearGradient id="linearGradient3843" y2="35.546" gradientUnits="userSpaceOnUse" y1="8.9115" x2="21.816" x1="21.702">
      <stop id="stop3839" offset="0"/>
      <stop id="stop3841" stop-color="#fff" stop-opacity=".78351" offset="1"/>
    </linearGradient>
  </defs>
  <g id="layer1">
    <path id="path3835" stroke-linejoin="round" opacity=".15" style="color:#000000" d="m36.5 22a14 13 0 1 1 -28 0 14 13 0 1 1 28 0z" fill-rule="evenodd" transform="matrix(.92070 0 0 .99358 3.6795 1.6412)" stroke="url(#linearGradient3843)" stroke-linecap="square" stroke-width="3.1366" fill="url(#radialGradient2263)"/>
    <path id="path2226" opacity=".04" style="color:#000000" d="m40.482 36.421a15.645 8.3969 0 1 1 -31.29 0 15.645 8.3969 0 1 1 31.29 0z" fill-rule="evenodd" transform="matrix(1.1505 0 0 .56568 -4.5765 16.553)" fill="url(#radialGradient2228)"/>
    <path id="path2525" stroke-linejoin="round" style="color:#000000" d="m36.5 22a14 13 0 1 1 -28 0 14 13 0 1 1 28 0z" fill-rule="evenodd" transform="matrix(.89486 0 0 .9657 3.8558 2.6603)" stroke="#c00" stroke-linecap="square" stroke-width="1.0757" fill="url(#radialGradient2263)"/>
    <path id="path2527" stroke-linejoin="round" style="color:#000000" d="m38 24a14 14 0 1 1 -28 0 14 14 0 1 1 28 0z" transform="matrix(.82143 0 0 .82143 4.2851 4.1915)" stroke="#f77d7d" stroke-linecap="square" stroke-width="1.2174" fill="none"/>
    <path id="path2529" opacity=".6" fill-rule="evenodd" fill="url(#radialGradient1368)" d="m23.843 11.906c-6.279 0.079-11.404 4.992-11.812 11.187 6.117 2.517 13.87-1.451 23.142-3.382-0.689-2.748-4.555-7.805-11.174-7.805-0.051 0-0.104-0.001-0.156 0z"/>
  </g>
  <metadata>
    <rdf:RDF>
      <cc:Work>
        <dc:format>image/svg+xml</dc:format>
        <dc:type rdf:resource="http://purl.org/dc/dcmitype/StillImage"/>
        <cc:license rdf:resource="http://creativecommons.org/licenses/publicdomain/"/>
        <dc:publisher>
          <cc:Agent rdf:about="http://openclipart.org/">
            <dc:title>Openclipart</dc:title>
          </cc:Agent>
        </dc:publisher>
      </cc:Work>
      <cc:License rdf:about="http://creativecommons.org/licenses/publicdomain/">
        <cc:permits rdf:resource="http://creativecommons.org/ns#Reproduction"/>
        <cc:permits rdf:resource="http://creativecommons.org/ns#Distribution"/>
        <cc:permits rdf:resource="http://creativecommons.org/ns#DerivativeWorks"/>
      </cc:License>
    </rdf:RDF>
  </metadata>
</svg>
